<?xml version="1.0" encoding="UTF-8"?>
<!DOCTYPE svg PUBLIC "-//W3C//DTD SVG 1.1//EN" "http://www.w3.org/Graphics/SVG/1.1/DTD/svg11.dtd">
<!-- Creator: CorelDRAW X5 -->
<svg xmlns="http://www.w3.org/2000/svg" xml:space="preserve" width="150px" height="153px" style="shape-rendering:geometricPrecision; text-rendering:geometricPrecision; image-rendering:optimizeQuality; fill-rule:evenodd; clip-rule:evenodd"
viewBox="0 0 2.11619 2.15912"
 xmlns:xlink="http://www.w3.org/1999/xlink">
 <defs>
  <style type="text/css">
   <![CDATA[
    .fil0 {fill:#FF6600}
   ]]>
  </style>
 </defs>
 <g id="Layer_x0020_1">
  <metadata id="CorelCorpID_0Corel-Layer"/>
  <path class="fil0" d="M1.43287 0.319162l-0.084761 -0.165189 -0.163839 0.084311 -0.130791 -0.130641 -0.130358 0.132008 -0.163722 -0.0829277 -0.083961 0.166622 -0.180888 -0.0273148 -0.029398 0.184954 -0.180355 0.0311312 0.0281148 0.185138 -0.162122 0.0864942 0.0827944 0.167189 -0.127908 0.133391 0.129258 0.132958 -0.0812112 0.167189 0.163222 0.0856109 -0.0266482 0.184588 0.181204 0.029998 0.0305646 0.183971 0.181371 -0.0286314 0.084761 0.165322 0.163856 -0.0843777 0.130725 0.130525 0.130291 -0.131958 0.163772 0.0828778 0.083911 -0.166555 0.180888 0.0272482 0.0294647 -0.184904 0.180221 -0.0311146 -0.0279814 -0.185154 0.162006 -0.0864275 -0.0826944 -0.167255 0.127908 -0.133324 -0.129308 -0.132958 0.0812779 -0.167122 -0.163222 -0.0856776 0.0266315 -0.184521 -0.181188 -0.0300646 -0.0304979 -0.183904 -0.181388 0.0284981zm-0.366375 -0.0346643l0.000983267 0.106693c-0.0534131,-0.000999933 -0.106709,0.00411639 -0.159206,0.0160989l0.0193154 0.104193c-0.045047,0.0119825 -0.0894106,0.0278815 -0.132374,0.04958l0.0418638 0.0947936c-0.0266482,0.0139657 -0.0515799,0.0304313 -0.0751616,0.0495133 -0.00654956,0.00523298 -0.0128991,0.0106659 -0.0192487,0.0157156l0.0574461 0.0666622c-0.0288481,0.0263816 -0.0531131,0.0561129 -0.0719952,0.0889273l0.0779781 0.04913c-0.0120325,0.0217652 -0.0195487,0.0420972 -0.0250483,0.0676621l0.0856109 0.0258149c-0.00304979,0.0173988 -0.00336644,0.0308146 -0.00121658,0.0473968l0.0968601 0.00336644c-0.00293314,0.0186487 0.000799946,0.0381141 0.0113659,0.0557629l-0.0835944 0.04988c-0.00929937,-0.0158989 -0.0158989,-0.0327311 -0.0201153,-0.0503299l-0.0949603 0.0211486c-0.00574961,-0.0281981 -0.00808279,-0.0571295 -0.00611625,-0.0848776l-0.0956436 -0.00448303c0.000983267,-0.0332478 0.00721618,-0.0668622 0.0182154,-0.0994766l-0.0884274 -0.0359142c0.0119659,-0.0372975 0.0286481,-0.0733951 0.0489467,-0.107443l-0.0775614 -0.0499466c0.0261649,-0.0410472 0.0570295,-0.0787114 0.0940603,-0.113192l-0.0716285 -0.0821945c0.0124158,-0.00928271 0.0241484,-0.0194487 0.0363642,-0.029298 0.0286647,-0.0231984 0.0586627,-0.0435971 0.0903273,-0.0610626l-0.0475468 -0.101277c0.118442,-0.063729 0.237601,-0.0977101 0.390507,-0.0928437zm-0.612159 0.287847l0.0823111 0.0657956c-0.034031,0.0420305 -0.0633791,0.0876774 -0.0869608,0.137074l0.0919105 0.0495133c-0.0188821,0.0433971 -0.0343477,0.0887274 -0.0444803,0.136507l0.0986934 0.0256816c-0.00593293,0.029998 -0.00879941,0.0601293 -0.00893273,0.0909272 -4.99966e-005,0.0084161 0.000133324,0.0168989 6.66622e-005,0.0251316l0.0869108 -0.00429971c0.00219985,0.039464 0.00989933,0.0773781 0.0231484,0.112926l0.0863609 -0.0315479c0.00916605,0.0231318 0.0200986,0.0417805 0.0361809,0.0621125l0.0732117 -0.0521965c0.0114326,0.0132824 0.0214486,0.0218319 0.0354976,0.0305479l0.0629458 -0.0751949c0.0125325,0.0139657 0.0297647,0.0231318 0.04988,0.0256816l-0.0139324 0.0977934c-0.0179655,-0.00249983 -0.035031,-0.00773281 -0.0510299,-0.015349l-0.0430971 0.088994c-0.025165,-0.0129658 -0.0487634,-0.0291814 -0.068812,-0.0480801l-0.0630624 0.0735284c-0.024865,-0.0215152 -0.0467469,-0.0475301 -0.0648956,-0.0765282l-0.0826944 0.0480801c-0.0210153,-0.0327978 -0.0383141,-0.0685954 -0.0517632,-0.105943l-0.0865942 0.0306813c-0.015149,-0.0464635 -0.024815,-0.0946103 -0.0281148,-0.145624l-0.107559 0.00586627c0.000549963,-0.0155823 0.000133324,-0.0313646 0.000183321,-0.0472635 6.66622e-005,-0.0373642 0.00311646,-0.0740283 0.00948269,-0.110126l-0.107193 -0.025265c0.0249817,-0.134141 0.0732617,-0.250433 0.172338,-0.369425zm-0.161106 0.667955l0.101693 -0.0246983c0.0109493,0.0533131 0.0276815,0.105193 0.0507966,0.154773l0.0952603 -0.0423971c0.0214652,0.0421472 0.0465802,0.0826778 0.0768282,0.120609l0.0812779 -0.0626791c0.0193154,0.0233151 0.0405139,0.0444637 0.0640457,0.063729 0.00641623,0.00536631 0.0130158,0.0104826 0.0193154,0.0156489l0.0508466 -0.0720285c0.0316479,0.0228985 0.0655123,0.0404139 0.10101,0.0518965l0.0295813 -0.088494c0.0234651,0.00711619 0.0446137,0.0100327 0.0702786,0.00984934l0.00563295 -0.0909105c0.0172988,-0.000883274 0.0301313,-0.00356643 0.0455303,-0.00929937l-0.0183988 -0.0970935c0.0185154,-0.00131658 0.0362976,-0.00934937 0.0507799,-0.0237651l0.0662455 0.0720285c-0.0131324,0.0127825 -0.0277481,0.0231318 -0.0435637,0.0311812l0.0413139 0.0898606c-0.0256816,0.0119825 -0.0528131,0.0206986 -0.0796946,0.0249483l0.0169822 0.0960935c-0.0320812,0.00641623 -0.0655123,0.00766615 -0.0991767,0.00404973l-0.0146157 0.0959769c-0.0383141,-0.00368309 -0.0765115,-0.0122158 -0.113476,-0.024815l-0.0304979 0.0882941c-0.045047,-0.0169489 -0.0879441,-0.039214 -0.129075,-0.0684121l-0.0625791 0.089494c-0.0116159,-0.010166 -0.0239651,-0.0196487 -0.0361142,-0.0296147 -0.0285481,-0.0233984 -0.054763,-0.0486467 -0.078478,-0.0762782l-0.0861609 0.0697786c-0.0872108,-0.103576 -0.14624,-0.214569 -0.175588,-0.367725zm0.411289 0.544897l0.0444303 -0.0964768c0.0477301,0.024515 0.0979101,0.0434804 0.15034,0.0560129l0.0268982 -0.102526c0.0457136,0.00916605 0.0923938,0.014399 0.140307,0.0138991l0.00263316 -0.103826c0.029948,-0.000866608 0.059346,-0.00461636 0.088794,-0.0114159 0.00813279,-0.00179988 0.0161322,-0.00386641 0.024015,-0.00559962l-0.0234651 -0.0854942c0.0372142,-0.0109826 0.0717452,-0.0270648 0.102726,-0.0482801l-0.0493133 -0.0787614c0.0200487,-0.0143324 0.0354476,-0.029298 0.0512799,-0.04988l-0.0660622 -0.0612459c0.010016,-0.0142824 0.0159989,-0.0261816 0.0211986,-0.0420805l-0.0858609 -0.0458469c0.010566,-0.0155823 0.0154656,-0.0347977 0.0134491,-0.0553629l0.0964935 -0.0079328c0.00164989,0.0184654 0.000433304,0.0365475 -0.00323312,0.0541964l0.0945936 0.0230651c-0.00684954,0.0279481 -0.0170489,0.0550796 -0.0306146,0.0791447l0.0842777 0.0463969c-0.015099,0.0295647 -0.0350143,0.0570628 -0.0587294,0.0816278l0.0643457 0.0715285c-0.0266482,0.0282481 -0.0569628,0.0534464 -0.0897106,0.0750783l0.0486467 0.079328c-0.0410639,0.025315 -0.0848943,0.0457136 -0.132924,0.0603626l0.0295813 0.105693c-0.015099,0.00293314 -0.0300146,0.0068662 -0.0451636,0.0102993 -0.0358143,0.00823278 -0.0714952,0.0133991 -0.107443,0.0150823l-0.000233318 0.112259c-0.133724,0.004983 -0.255633,-0.0171488 -0.391257,-0.089244zm0.673955 0.0117325l-0.0461969 -0.0957269c0.0485301,-0.0227651 0.0943603,-0.0509466 0.136657,-0.0849443l-0.0618458 -0.0853609c0.0355643,-0.0308146 0.0687454,-0.064729 0.0981934,-0.103343l-0.0779781 -0.0668455c0.0180321,-0.0243817 0.0334977,-0.0501966 0.0466302,-0.0778781 0.00373308,-0.00761615 0.00714952,-0.015349 0.0106993,-0.0226985l-0.0801113 -0.0345477c0.0147157,-0.0365475 0.024015,-0.0741617 0.0270648,-0.112076l-0.0911105 -0.00971601c0.00151656,-0.0249483 -0.000366642,-0.0465969 -0.00624958,-0.0720951l-0.0881107 0.0145324c-0.00464969,-0.0168989 -0.0100827,-0.0290647 -0.0190154,-0.0431638l-0.0886774 0.039914c-0.00536631,-0.0181488 -0.0170489,-0.0340477 -0.034031,-0.0452136l0.0541464 -0.0819278c0.015099,0.010216 0.0282314,0.0224485 0.0394807,0.0364142l0.0766282 -0.0611792c0.0171155,0.0229485 0.0315312,0.0480134 0.0416139,0.0738284l0.0879441 -0.0382808c0.0133324,0.0304313 0.0219485,0.0634791 0.0260316,0.0976601l0.0949103 -0.00668288c0.00501633,0.038914 0.00538297,0.0787614 0.00159989,0.118359l0.0911105 0.0107326c-0.00623291,0.0485134 -0.0179655,0.0961602 -0.0366642,0.143624l0.0994266 0.0422805c-0.00714952,0.0138324 -0.0134491,0.0282481 -0.020232,0.0425305 -0.0159989,0.0335977 -0.034331,0.0653456 -0.0554296,0.0950269l0.0858776 0.0701619c-0.079578,0.109876 -0.172588,0.193254 -0.312362,0.256616zm0.429204 -0.530448l-0.102126 -0.0228151c0.0128325,-0.0528798 0.0197987,-0.107009 0.0200487,-0.161956l-0.103893 -0.00386641c-0.00146657,-0.0475801 -0.00684954,-0.0952269 -0.0179655,-0.142807l-0.0998599 0.0205819c-0.0074495,-0.0296147 -0.0175988,-0.0580628 -0.0306146,-0.0858109 -0.00354976,-0.00773281 -0.00726618,-0.0152823 -0.0106993,-0.0226985l-0.0764449 0.0424138c-0.0187654,-0.0345477 -0.0417972,-0.0654289 -0.0689954,-0.0914938l-0.0642957 0.0666622c-0.0181488,-0.0167655 -0.0358809,-0.0287981 -0.059096,-0.039964l-0.0437637 0.0793113c-0.0158823,-0.00678288 -0.0285981,-0.0100993 -0.0449136,-0.0116492l-0.0247483 0.0955269c-0.0172322,-0.00698286 -0.0366642,-0.00759949 -0.0558629,-0.00104993l-0.0289647 -0.094227c0.0171822,-0.00574961 0.034781,-0.00854942 0.0524298,-0.00879941l0.000916605 -0.0992766c0.0282981,0.000683287 0.0565295,0.00479968 0.0825111,0.0127825l0.0255483 -0.093977c0.0315979,0.00829944 0.0623291,0.0220152 0.0910605,0.040164l0.054013 -0.0799446c0.0329478,0.0202653 0.0637457,0.0448303 0.0917272,0.0725118l0.064979 -0.0659622c0.0332978,0.035231 0.0625791,0.0742617 0.0871941,0.118725l0.094427 -0.0529464c0.00616625,0.0144157 0.0132658,0.0283814 0.0199153,0.0427138 0.0158323,0.0337477 0.0287314,0.0681121 0.0382641,0.10346l0.107376 -0.024815c0.0344643,0.132024 0.0404473,0.258233 0.00183321,0.409206zm-0.138857 -0.673055l-0.0810945 0.0671621c-0.0325645,-0.0431471 -0.069662,-0.0824944 -0.111642,-0.116992l-0.0677788 0.0805112c-0.0373475,-0.0284981 -0.0771948,-0.0539464 -0.120509,-0.0747116l-0.0465802 0.0924938c-0.0273148,-0.0124825 -0.0554296,-0.0221485 -0.0848276,-0.0290647 -0.00811612,-0.00199987 -0.0162489,-0.00374975 -0.024015,-0.00561629l-0.015149 0.0873608c-0.0382641,-0.00653289 -0.0762115,-0.00734951 -0.113176,-0.0019332l0.0109993 0.0927938c-0.024215,0.00406639 -0.0444303,0.0106659 -0.0674788,0.0223318l0.0334977 0.084311c-0.0151656,0.0084161 -0.0255483,0.0165822 -0.0369808,0.0285647l0.0578128 0.0793113c-0.0160656,0.00941603 -0.0287147,0.024515 -0.0356309,0.0439637l-0.0902606 -0.0356643c0.00629958,-0.0172655 0.0151656,-0.0331144 0.0259149,-0.0473968l-0.0754116 -0.0626125c0.0180821,-0.0220652 0.038864,-0.0420805 0.0612292,-0.0577961l-0.0560962 -0.0790113c0.0260316,-0.0200153 0.0557296,-0.0359809 0.0875108,-0.0475801l-0.0275648 -0.0929271c0.0361142,-0.0136491 0.0740783,-0.0229485 0.112759,-0.0279315l-0.0100327 -0.0930437c0.0477301,-0.00454969 0.0959602,-0.00354976 0.14539,0.00448303l0.0182821 -0.108309c0.014849,0.00404973 0.029948,0.00709952 0.045097,0.0107159 0.0357476,0.00843277 0.0701619,0.019582 0.10316,0.0339977l0.0479801 -0.101093c0.122592,0.0547463 0.223002,0.128708 0.314595,0.253683zm-0.194337 -0.358759l-0.094177 -0.183588 -0.182054 0.093727 -0.145257 -0.145174 -0.14484 0.146673 -0.181938 -0.0921771 -0.0933104 0.185154 -0.201003 -0.0303146 -0.0326311 0.205486 -0.200403 0.0346143 0.0312312 0.205719 -0.180088 0.0960935 0.0919605 0.185771 -0.14214 0.14824 0.143674 0.147673 -0.0902606 0.185771 0.181388 0.0951603 -0.029648 0.205103 0.20137 0.0332978 0.0339144 0.20442 0.201553 -0.0317979 0.094177 0.183704 0.182054 -0.0937937 0.145207 0.145057 0.144774 -0.146607 0.181988 0.0921105 0.0932604 -0.185088 0.201003 0.0302313 0.0326978 -0.205403 0.20027 -0.0346143 -0.0311146 -0.205736 0.179988 -0.0960269 -0.0918605 -0.185837 0.14209 -0.148107 -0.143674 -0.147723 0.0903273 -0.185721 -0.181388 -0.0952103 0.029648 -0.205053 -0.20132 -0.0333644 -0.0339144 -0.204353 -0.201553 0.0316812z"/>
 </g>
</svg>
