<svg xmlns="http://www.w3.org/2000/svg" xmlns:xlink="http://www.w3.org/1999/xlink" width="201.5" height="74.479" viewBox="0 0 201.5 74.479">
  <defs>
    <clipPath id="clip-path">
      <path id="Path_9416" data-name="Path 9416" d="M306.634,589.1a5.557,5.557,0,0,0-5.434,5.669v61.662a5.558,5.558,0,0,0,5.434,5.669h64.534v-73Zm57.926,36.466a29.2,29.2,0,0,1-8.325,20.955,27.513,27.513,0,0,1-40.124,0,30.477,30.477,0,0,1,0-41.864,26.756,26.756,0,0,1,20.04-8.686,27.483,27.483,0,0,1,10.824,2.222,27.857,27.857,0,0,1,9.173,6.372l-7.608,8.028a17.894,17.894,0,0,0-5.651-3.946,17.087,17.087,0,0,0-6.695-1.338,16.562,16.562,0,0,0-12.368,5.352,18.823,18.823,0,0,0,0,25.83,16.991,16.991,0,0,0,24.757,0,18.479,18.479,0,0,0,4.26-7.279H336.173V619.874H364.56Z" transform="translate(-301.2 -589.1)" fill="#0f39ff"/>
    </clipPath>
  </defs>
  <g id="blue_logo_tm" data-name="blue logo tm" transform="translate(18355.844 18811.75)">
    <g id="Group_10006" data-name="Group 10006" transform="translate(-18355.094 -18811)">
      <g id="Group_10005" data-name="Group 10005" transform="translate(0 0)" clip-path="url(#clip-path)">
        <path id="Path_9403" data-name="Path 9403" d="M221.8,869.732l20.823,2.608L223.691,832.2Z" transform="translate(-239.058 -777.07)" fill="#0f39ff" stroke="#0f39ff" stroke-width="1"/>
        <path id="Path_9404" data-name="Path 9404" d="M231,791.867l20.171,42.589,5.282.657-25-52.114Z" transform="translate(-246.259 -739.027)" fill="#0f39ff" stroke="#0f39ff" stroke-width="1"/>
        <path id="Path_9405" data-name="Path 9405" d="M237.791,649.7l-.391,8.8,6.869,13.879,4.391-.975Z" transform="translate(-251.267 -635.957)" fill="#0f39ff" stroke="#0f39ff" stroke-width="1"/>
        <path id="Union_24" data-name="Union 24" d="M33.411,100.19,0,35.491,3.3,3.561,36.235,1.449l-.012,1.969L49.58,0,65.423,26.6h0L76.532,45.24l-.305,53.093-40.6,5.964v.183l-.091-.171-2.235.328Z" transform="translate(-5.195 -8.391)" fill="#0861ce"/>
        <path id="Path_9407" data-name="Path 9407" d="M284.134,766.3l-4.434.952,25.735,52.069.261-9.933Z" transform="translate(-284.373 -728.035)" fill="#0861ce"/>
        <path id="Path_9409" data-name="Path 9409" d="M595.246,521.3l-9.846,2.54,9.781,15.671Z" transform="translate(-523.626 -536.676)" fill="#0f39ff"/>
        <path id="Path_9410" data-name="Path 9410" d="M558.212,533.9l-5.912,1.519,16.932,27.644.043-11.384Z" transform="translate(-497.721 -546.418)" fill="#0861ce"/>
        <path id="Path_9412" data-name="Path 9412" d="M554.232,572.862l1.8-.386L537.952,542.7l-1.652.408Z" transform="translate(-484.764 -552.089)" fill="#0861ce"/>
        <path id="Path_9414" data-name="Path 9414" d="M270.733,771.9l-.633.136,26.882,55.311.021-1.157Z" transform="translate(-276.049 -732.366)" fill="#0861ce"/>
        <g id="Group_10004" data-name="Group 10004" transform="translate(18.106 1.656)">
          <path id="Path_9415" data-name="Path 9415" d="M384.5,596.4" transform="translate(-384.5 -596.4)" fill="#0f39ff" stroke="#0f39ff" stroke-width="1"/>
        </g>
      </g>
    </g>
    <path id="Path_9417" data-name="Path 9417" d="M495.65,662.079H306.771a5.623,5.623,0,0,1-5.571-5.67V594.77a5.623,5.623,0,0,1,5.571-5.67H495.627a5.623,5.623,0,0,1,5.571,5.67v61.662A5.585,5.585,0,0,1,495.65,662.079Z" transform="translate(-18656.293 -19400.1)" fill="none" stroke="#0861ce" stroke-miterlimit="10" stroke-width="1.5"/>
    <g id="Group_10009" data-name="Group 10009" transform="translate(-18277.854 -18801.361)">
      <g id="Group_10007" data-name="Group 10007" transform="translate(0 33.046)">
        <path id="Path_9418" data-name="Path 9418" d="M701.046,779.183H692.2V777.69h10.234l.064.512a7.12,7.12,0,0,1,.064.917,10.327,10.327,0,1,1-10.34-10.319,10.279,10.279,0,0,1,4.008.81,10.119,10.119,0,0,1,3.39,2.324l-1.066,1.023a8.746,8.746,0,0,0-2.9-2,8.631,8.631,0,0,0-3.454-.7,8.864,8.864,0,1,0,8.848,8.933Z" transform="translate(-681.9 -768.8)" fill="#0861ce"/>
        <path id="Path_9419" data-name="Path 9419" d="M804.91,804.859a8,8,0,0,1-4.008,1.066,8.112,8.112,0,1,1,0-16.225,8.067,8.067,0,0,1,6.972,3.944l.384.64-.64.384-12.11,6.993a8.748,8.748,0,0,0,.7.853,6.65,6.65,0,0,0,7.952,1.087,6.475,6.475,0,0,0,2.431-2.367l1.258.746A7.94,7.94,0,0,1,804.91,804.859Zm-10.149-4.5,11.428-6.588a6.641,6.641,0,0,0-2.025-1.748,6.632,6.632,0,0,0-9.893,5.778A6.912,6.912,0,0,0,794.761,800.36Z" transform="translate(-769.156 -785.244)" fill="#0861ce"/>
        <path id="Path_9420" data-name="Path 9420" d="M880,790.346h1.471V792.9a8.587,8.587,0,0,1,.789-.959,7.774,7.774,0,0,1,11.129,0,8.013,8.013,0,0,1,2.26,5.778V805.1h-1.471v-7.377a6.6,6.6,0,0,0-1.855-4.755,6.281,6.281,0,0,0-9,0,6.547,6.547,0,0,0-1.855,4.733v7.4H880Z" transform="translate(-837.764 -785.165)" fill="#0861ce"/>
        <path id="Path_9421" data-name="Path 9421" d="M973.671,772.4v1.492H972.2V772.4Zm0,4.413v14.754H972.2V776.813Z" transform="translate(-910.307 -771.632)" fill="#0861ce"/>
        <path id="Path_9422" data-name="Path 9422" d="M1013.549,807.854h-1.471v-2.58a8.6,8.6,0,0,1-.789.959,7.329,7.329,0,0,1-5.565,2.345,7.473,7.473,0,0,1-5.565-2.345,7.929,7.929,0,0,1-2.26-5.757V793.1h1.471v7.377a6.548,6.548,0,0,0,1.855,4.733,6.281,6.281,0,0,0,9,0,6.728,6.728,0,0,0,1.855-4.733V793.1h1.471Z" transform="translate(-930.527 -787.919)" fill="#0861ce"/>
        <path id="Path_9423" data-name="Path 9423" d="M1088.992,801.575c0,1.279.789,2.153,2.345,2.622a6.063,6.063,0,0,0,1.791.256v-.021a7.109,7.109,0,0,0,1.791-.234c1.556-.469,2.345-1.343,2.345-2.622a2.265,2.265,0,0,0-1.343-2.068,13.351,13.351,0,0,0-2.964-.981,13.354,13.354,0,0,1-3.731-1.322,3.51,3.51,0,0,1-1.706-3.177,3.731,3.731,0,0,1,.981-2.6,5.031,5.031,0,0,1,2.409-1.429,7.538,7.538,0,0,1,2.217-.3,8.275,8.275,0,0,1,2.2.3,5.277,5.277,0,0,1,2.43,1.429,3.73,3.73,0,0,1,.981,2.6h-1.471c0-1.279-.789-2.153-2.345-2.6a6.063,6.063,0,0,0-1.791-.256,6.275,6.275,0,0,0-1.791.256c-1.577.469-2.345,1.343-2.345,2.6a2.294,2.294,0,0,0,1.343,2.089,12.819,12.819,0,0,0,2.964.959,13.352,13.352,0,0,1,3.731,1.322,3.493,3.493,0,0,1,1.684,3.177,3.729,3.729,0,0,1-.981,2.6,5.1,5.1,0,0,1-2.43,1.429,7.5,7.5,0,0,1-2.2.32V805.9a8.437,8.437,0,0,1-2.218-.3,5.2,5.2,0,0,1-2.409-1.429,3.7,3.7,0,0,1-.981-2.6Z" transform="translate(-1001.024 -785.244)" fill="#0861ce"/>
      </g>
      <g id="Group_10008" data-name="Group 10008" transform="translate(0.085 0)">
        <path id="Path_9424" data-name="Path 9424" d="M695.241,644.768H708.2v2.473A12.95,12.95,0,1,1,695.241,634.3a12.72,12.72,0,0,1,4.946.981,13.16,13.16,0,0,1,4.2,2.793l-3.5,3.518a8.064,8.064,0,0,0-2.58-1.727,8.191,8.191,0,0,0-3.07-.576,8.006,8.006,0,1,0,5.671,13.666,8.361,8.361,0,0,0,1.962-3.177h-7.633Z" transform="translate(-682.3 -634.3)" fill="#0861ce"/>
        <path id="Path_9425" data-name="Path 9425" d="M830.467,636.8v24.817H825.5V636.8Z" transform="translate(-794.969 -636.267)" fill="#0861ce"/>
        <path id="Path_9426" data-name="Path 9426" d="M883.986,662.676v-1.258h4.968V680.5h-4.968v-1.258a7.474,7.474,0,0,1-5.159,1.812,10.127,10.127,0,0,1,0-20.254A7.581,7.581,0,0,1,883.986,662.676Zm0,8.272a5.429,5.429,0,0,0-1.514-3.859,4.956,4.956,0,0,0-7.292,0,5.7,5.7,0,0,0,0,7.739,4.956,4.956,0,0,0,7.292,0,5.39,5.39,0,0,0,1.514-3.88Z" transform="translate(-828.959 -655.15)" fill="#0861ce"/>
        <path id="Path_9427" data-name="Path 9427" d="M989.424,668.59q.512.16,1.6.384,1.279.288,1.855.448a8.417,8.417,0,0,1,3.454,1.684,5.048,5.048,0,0,1,1.6,3.944,5.391,5.391,0,0,1-1.407,3.71,7.09,7.09,0,0,1-3.347,2.047,10.005,10.005,0,0,1-2.772.384,9.741,9.741,0,0,1-2.75-.384,7.129,7.129,0,0,1-3.39-2.047,5.517,5.517,0,0,1-1.364-3.774h4.968a1.508,1.508,0,0,0,.917,1.343,3.346,3.346,0,0,0,1.642.405,3.212,3.212,0,0,0,1.791-.49,1.46,1.46,0,0,0,.768-1.215c0-.6-.533-1.045-1.578-1.386-.341-.107-.874-.234-1.6-.405-.832-.192-1.45-.32-1.855-.426a8.7,8.7,0,0,1-3.454-1.706,5.2,5.2,0,0,1-1.6-3.944,5.528,5.528,0,0,1,1.386-3.731,7.3,7.3,0,0,1,3.369-2.025A9.04,9.04,0,0,1,990.4,661a9.279,9.279,0,0,1,2.772.405,6.954,6.954,0,0,1,3.369,2.047,5.534,5.534,0,0,1,1.386,3.774h-4.967v-.043a1.482,1.482,0,0,0-.746-1.215,3.174,3.174,0,0,0-1.812-.512,3.211,3.211,0,0,0-1.791.49,1.433,1.433,0,0,0-.746,1.215C987.867,667.78,988.4,668.249,989.424,668.59Z" transform="translate(-918.811 -655.307)" fill="#0861ce"/>
        <path id="Path_9428" data-name="Path 9428" d="M1076.124,668.59q.512.16,1.6.384,1.279.288,1.855.448a8.418,8.418,0,0,1,3.454,1.684,5.048,5.048,0,0,1,1.6,3.944,5.392,5.392,0,0,1-1.407,3.71,7.09,7.09,0,0,1-3.347,2.047,10,10,0,0,1-2.772.384,9.743,9.743,0,0,1-2.75-.384,7.127,7.127,0,0,1-3.39-2.047,5.517,5.517,0,0,1-1.365-3.774h4.968a1.508,1.508,0,0,0,.917,1.343,3.343,3.343,0,0,0,1.641.405,3.212,3.212,0,0,0,1.791-.49,1.46,1.46,0,0,0,.768-1.215c0-.6-.533-1.045-1.578-1.386-.341-.107-.874-.234-1.6-.405-.832-.192-1.45-.32-1.855-.426a8.7,8.7,0,0,1-3.454-1.706,5.2,5.2,0,0,1-1.6-3.944,5.53,5.53,0,0,1,1.386-3.731,7.3,7.3,0,0,1,3.369-2.025,9.041,9.041,0,0,1,2.75-.405,9.28,9.28,0,0,1,2.772.405,6.957,6.957,0,0,1,3.369,2.047,5.534,5.534,0,0,1,1.386,3.774h-4.968v-.043a1.481,1.481,0,0,0-.746-1.215,3.173,3.173,0,0,0-1.812-.512,3.212,3.212,0,0,0-1.791.49,1.434,1.434,0,0,0-.746,1.215C1074.546,667.78,1075.079,668.249,1076.124,668.59Z" transform="translate(-987.026 -655.307)" fill="#0861ce"/>
      </g>
    </g>
    <rect id="Rectangle_489" data-name="Rectangle 489" height="72.148" transform="translate(-18285.283 -18810.572)" fill="#0861ce" stroke="#0861ce" stroke-miterlimit="10" stroke-width="1.5"/>
    <path id="Icon_awesome-trademark" data-name="Icon awesome-trademark" d="M6.667,6.75H.307A.308.308,0,0,0,0,7.057v1.1a.308.308,0,0,0,.307.307H2.484v6.163a.308.308,0,0,0,.307.307H4.18a.308.308,0,0,0,.307-.307V8.467H6.664a.308.308,0,0,0,.307-.307v-1.1A.3.3,0,0,0,6.667,6.75ZM16.372,14.6l-.614-7.572a.307.307,0,0,0-.307-.281H13.778a.306.306,0,0,0-.289.207l-1.12,3.251c-.184.527-.412,1.351-.412,1.351h-.023s-.228-.824-.412-1.351L10.4,6.957a.308.308,0,0,0-.289-.207H8.439a.311.311,0,0,0-.307.281L7.508,14.6a.306.306,0,0,0,.307.333H9.209a.309.309,0,0,0,.307-.287l.233-3.4a12.112,12.112,0,0,0,0-1.374h.023s.274.86.458,1.374l.785,2.167a.307.307,0,0,0,.289.2h1.287a.307.307,0,0,0,.289-.2l.785-2.167c.184-.514.458-1.374.458-1.374h.023a12.112,12.112,0,0,0,0,1.374l.233,3.4a.308.308,0,0,0,.307.287h1.379a.309.309,0,0,0,.307-.333Z" transform="translate(-18175.871 -18800.055)" fill="#0861ce"/>
  </g>
</svg>
