<?xml version="1.0" encoding="UTF-8"?>
<svg width="953px" height="272px" viewBox="0 0 953 272" version="1.1" xmlns="http://www.w3.org/2000/svg" xmlns:xlink="http://www.w3.org/1999/xlink">
    <!-- Generator: Sketch 54.1 (76490) - https://sketchapp.com -->
    <title>SP Dark Logo</title>
    <desc>Created with Sketch.</desc>
    <g id="Page-1" stroke="none" stroke-width="1" fill="none" fill-rule="evenodd">
        <g id="SP-Dark-Logo" fill-rule="nonzero">
            <path d="M352.33,193.44 C341.39,193.44 332.186667,190.993333 324.72,186.1 C317.380509,181.375572 311.827262,174.337236 308.94,166.1 L327.56,155.22 C331.853333,166.5 340.333333,172.14 353,172.14 C359.1,172.14 363.57,171.036667 366.41,168.83 C369.250428,166.748778 370.847572,163.373767 370.655933,159.857692 C370.464294,156.341616 368.509799,153.160182 365.46,151.4 C361.986667,149.24 355.783333,146.906667 346.85,144.4 C342.572162,143.17682 338.368503,141.707709 334.26,140 C330.629644,138.383617 327.188807,136.371431 324,134 C320.63614,131.593976 317.946842,128.364064 316.19,124.62 C314.323102,120.453846 313.407602,115.924171 313.51,111.36 C313.51,101.36 317.06,93.3933333 324.16,87.46 C331.26,81.5266667 339.803333,78.5566667 349.79,78.55 C358.123315,78.3792003 366.324194,80.65278 373.38,85.09 C380.260639,89.568929 385.750911,95.8836073 389.23,103.32 L370.93,113.89 C366.516667,104.416667 359.47,99.6833333 349.79,99.69 C345.27,99.69 341.723333,100.713333 339.15,102.76 C336.646417,104.647398 335.205729,107.625565 335.28,110.76 C335.223557,114.122241 336.852432,117.289916 339.62,119.2 C342.506667,121.36 348.053333,123.693333 356.26,126.2 C359.633333,127.253333 362.186667,128.07 363.92,128.65 C365.65,129.23 368.02,130.12 371.01,131.33 C373.439982,132.248472 375.782698,133.383016 378.01,134.72 C379.965772,136.018887 381.836274,137.441804 383.61,138.98 C385.509355,140.539496 387.135034,142.40514 388.42,144.5 C389.636213,146.669051 390.589602,148.975313 391.26,151.37 C392.070694,154.215032 392.468093,157.161851 392.44,160.12 C392.44,170.333333 388.733333,178.433333 381.32,184.42 C373.906667,190.406667 364.256667,193.406667 352.37,193.42 L352.33,193.44 Z" id="Path" fill="#222337"></path>
            <path d="M684.36,191.88 C675.726667,191.88 668.6,188.986667 662.98,183.2 C657.36,177.413333 654.546667,169.413333 654.54,159.2 L654.54,131.91 L640.81,131.91 L640.81,112.35 L654.54,112.35 L654.54,96.41 L674.89,90.26 L674.89,112.35 L684.36,112.35 L684.36,131.91 L674.89,131.91 L674.89,156.7 C674.89,161.953333 676.31,165.976667 679.15,168.77 C680.627721,170.214714 682.40696,171.314359 684.36,171.99 L684.36,191.88 Z" id="Path" fill="#222337"></path>
            <path d="M866.86,118.77 C852.54,119.03 844.48,128.36 844.48,142.55 L844.48,191.23 L836.48,191.23 L836.48,142.55 C836.48,123.61 848.22,111.25 866.85,111.25 L866.85,118.77 L866.86,118.77 Z" id="Path" fill="#222337"></path>
            <path d="M910.89,110.61 C887.89,110.61 869.4,128.44 869.4,151.79 C869.4,175.14 887.85,193 910.89,193 C933.77,193 952.22,175.17 952.22,151.82 C952.22,128.47 933.77,110.61 910.89,110.61 Z M910.89,185.39 C892.333232,185.39 877.29,170.346768 877.29,151.79 C877.29,133.233232 892.333232,118.19 910.89,118.19 C929.66,118.19 944.18,133.02 944.18,151.79 C944.18,170.56 929.66,185.39 910.89,185.39 Z" id="Shape" fill="#222337"></path>
            <path d="M794.42,80.8 L756.88,80.8 L756.88,191.23 L765.24,191.23 L765.24,149.11 L794.42,149.11 C814.3,149.11 828.82,134.43 828.82,115.03 C828.82,95.47 814.3,80.8 794.42,80.8 Z M794.42,141.22 L765.24,141.22 L765.24,88.68 L794.42,88.68 C809.57,88.68 820.42,99.68 820.42,115.03 C820.46,130.17 809.57,141.22 794.42,141.22 Z" id="Shape" fill="#222337"></path>
            <path d="M706.6,102.88 C699.765618,102.767631 694.252369,97.2543823 694.14,90.42 C694.125546,87.0919158 695.464736,83.9009627 697.85,81.58 C700.109745,79.1518462 703.283071,77.7809695 706.6,77.8 C709.971211,77.7566459 713.206402,79.1276126 715.52,81.58 C717.905264,83.9009627 719.244454,87.0919158 719.23,90.42 C719.250263,93.7229592 717.90819,96.8882249 715.52,99.17 C713.185882,101.584389 709.957852,102.926989 706.6,102.88 L706.6,102.88 Z" id="Path" fill="#222337"></path>
            <polygon id="Path" fill="#222337" points="696.51 191.23 696.51 112.35 716.86 112.35 716.86 191.23 696.51 191.23"></polygon>
            <path d="M628.66,98.15 C617.553333,97.31 611.98,101.78 611.94,111.56 L611.94,112.35 L628.66,112.35 L628.66,131.91 L611.94,131.91 L611.94,191.23 L591.59,191.23 L591.59,131.91 L580.23,131.91 L580.23,112.35 L591.59,112.35 L591.59,111.56 C591.59,100.406667 594.693333,91.94 600.9,86.16 C607.106667,80.38 616.36,77.8566667 628.66,78.59 L628.66,98.15 Z" id="Path" fill="#222337"></path>
            <path d="M547.72,112.35 L568.08,112.35 L568.08,191.23 L547.72,191.23 L547.72,182.4 C542.78,189.733333 534.946667,193.4 524.22,193.4 C515.593333,193.4 508.466667,190.506667 502.84,184.72 C497.213333,178.933333 494.4,170.933333 494.4,160.72 L494.4,112.35 L514.75,112.35 L514.75,158.26 C514.75,163.52 516.17,167.543333 519.01,170.33 C521.85,173.116667 525.636667,174.51 530.37,174.51 C535.63,174.51 539.836667,172.88 542.99,169.62 C546.143333,166.36 547.72,161.466667 547.72,154.94 L547.72,112.35 Z" id="Path" fill="#222337"></path>
            <path d="M449.51,110.14 C458.136667,110.14 465.263333,113.033333 470.89,118.82 C476.516667,124.606667 479.33,132.606667 479.33,142.82 L479.33,191.25 L459,191.25 L459,145.32 C459,140.06 457.58,136.036667 454.74,133.25 C451.9,130.463333 448.113333,129.07 443.38,129.07 C438.12,129.07 433.913333,130.7 430.76,133.96 C427.606667,137.22 426.02,142.11 426,148.63 L426,191.23 L405.65,191.23 L405.65,80.8 L426,80.8 L426,121.19 C430.94,113.816667 438.773333,110.15 449.5,110.19 L449.51,110.14 Z" id="Path" fill="#222337"></path>
            <path d="M135.62,25.29 C196.553576,25.29 245.95,74.6864236 245.95,135.62 C245.95,196.553576 196.553576,245.95 135.62,245.95 L135.62,271.24 C60.7191422,271.24 9.17270957e-15,210.520858 0,135.62 C-9.17270957e-15,60.7191422 60.7191422,1.37590644e-14 135.62,0 L135.62,25.29 Z M186.26,85 C162.086474,60.8456155 124.216732,57.1310319 95.8105616,76.1279566 C67.4043916,95.1248813 56.3733843,131.542355 69.4637118,163.108745 C82.5540394,194.675135 116.119828,212.598677 149.633434,205.917969 C183.14704,199.237262 207.274368,169.812993 207.26,135.64 C207.278478,116.637883 199.720548,98.4124734 186.26,85 L186.26,85 Z" id="Shape" fill="#EF5350"></path>
        </g>
    </g>
</svg>